<?xml version="1.0" encoding="utf-8"?>
<!-- Generator: Adobe Illustrator 15.0.0, SVG Export Plug-In  -->
<!DOCTYPE svg PUBLIC "-//W3C//DTD SVG 1.1//EN" "http://www.w3.org/Graphics/SVG/1.1/DTD/svg11.dtd" [
	<!ENTITY ns_flows "http://ns.adobe.com/Flows/1.0/">
]>
<svg version="1.1"
	 xmlns="http://www.w3.org/2000/svg" xmlns:xlink="http://www.w3.org/1999/xlink" xmlns:a="http://ns.adobe.com/AdobeSVGViewerExtensions/3.0/"
	 x="0px" y="0px" width="427px" height="951px" viewBox="-0.7 -0.6 427 951"
	 overflow="visible" enable-background="new -0.7 -0.6 427 951" xml:space="preserve">
<defs>
</defs>
<path id="Fifth_right_distal_plantar_toe_1_" fill-rule="evenodd" clip-rule="evenodd" fill="#2895B2" d="M4.2,257.4
	c8.6-26.4,18.8-50,42-50c23.2,0,37.7,22.7,42,50c5.3,34-18.8,50-42,50C1.9,307.4-6.6,290.4,4.2,257.4z"/>
<path id="Fourth_right_distal_plantar_toe_1_" fill-rule="evenodd" clip-rule="evenodd" fill="#2895B2" d="M47.3,176.9
	c0-27.3,22-55.5,43-55.5s38,22.2,38,49.5s-17,49.5-38,49.5S47.3,204.3,47.3,176.9z"/>
<path id="Third_right_distal_plantar_toe_1_" fill-rule="evenodd" clip-rule="evenodd" fill="#2895B2" d="M109.3,120
	c-11.2-24.9-2.6-59.6,16.5-68.2c19.2-8.6,43.7,4.7,54.9,29.6s4.7,52.1-14.4,60.7C147.2,150.7,120.5,144.9,109.3,120z"/>
<path id="Second_right_distal_plantar_toe_1_" fill-rule="evenodd" clip-rule="evenodd" fill="#2895B2" d="M163.3,49.1
	c0,0,30,36.3,30,53.3s64-10.3,67-26.7C297.3,23.4,190.3-24.6,163.3,49.1z"/>
<path id="First_right_distal_plantar_toe_1_" fill-rule="evenodd" clip-rule="evenodd" fill="#2895B2" d="M413.3,103.3
	C413.3,56.7,363.6,0,322.1,0c-26.7,0-44,20.2-52.9,47c1.8,8.6,0.3,18.2-6.1,27.9c-0.8,6.7-1.2,13.5-1.2,20.3
	c0,46.6,41.6,84.3,83.2,84.3S419.3,154,413.3,103.3z"/>
<path id="Fifth_right_proximal_plantar_toe_1_" fill-rule="evenodd" clip-rule="evenodd" fill="#2895B2" d="M90.1,275.5
	c-5.8,20.1-21.1,32.7-38.8,32.7c-22,0-42.3-3.3-48.9-11.8l2.7,8.5l24.8,55.7c13.2-9.3,26.9-23.8,39.6-33.9
	c9.1-7.3,22.2-15.2,31.7-22.5C100.2,295.2,97.5,283.4,90.1,275.5z"/>
<path id="Fourth_right_proximal_plantar_toe_1_" fill-rule="evenodd" clip-rule="evenodd" fill="#2895B2" d="M130.7,191.9
	c-7.2,18.8-24.3,32.5-48.6,30.4c-9.3,0,2.9,9.6,6.1,29.2c0.8,4.8,1.9,18.2,1.6,22.3c1.4,0,2.8,0.5,3.8,1.9
	c5.9,7.9,7.2,16.6,8.1,25.6c1.9-1.8,3.6-3.6,5.1-5.7c11.4-14.8,13.1-35.3,17.7-52.4c2.8-10.7,7.4-20.8,14.1-29.8
	C136.2,206.1,133.1,199.1,130.7,191.9z"/>
<path id="Third_right_proximal_plantar_toe_1_" fill-rule="evenodd" clip-rule="evenodd" fill="#2895B2" d="M168.3,145.1
	c-12.7,8.3-31.1-4.5-39.8,2c-0.3,5.8,1.5,31.7,1.6,33.4c0.2,10.9,5.2,21.1,8.7,31.4c0.6-0.7,15.7-17.5,26.8-24.4
	c6.5-4.1,18.5-10.8,25.9-13.2v-61.4C187,124.2,179.5,140.1,168.3,145.1z"/>
<path id="Second_right_proximal_plantar_toe_1_" fill-rule="evenodd" clip-rule="evenodd" fill="#2895B2" d="M269.4,147.2
	c-2.1-10.3-6.4-20.7-7.2-31.2c-3.6-10.4-2.6-21.1-2.6-31.6c0,0-38.4,28.4-65.8,24.4v65.4c2.8-0.5,40.4,3.6,55,6.2
	c10.5,1.9,21,4.1,31.3,6.9C276.1,174.1,272.2,160.8,269.4,147.2z"/>
<path id="First_right_proximal_plantar_toe_1_" fill-rule="evenodd" clip-rule="evenodd" fill="#2895B2" d="M413.1,138.8l-1-1
	c-8.2,31.1-35.8,45.6-67.6,45.6c-25.8,0-58.5-21.5-75-48.8c0.5,2.9,1.1,5.8,1.7,8.7c3.2,14.2,6.4,28.1,10.7,42
	c1.2,0.4,9.3,1.8,10.5,2.2c44.1,15.3,81.8,43.7,121.2,68.9C402.4,202.5,413.1,138.8,413.1,138.8z"/>
<path id="Right_distal_lateral_plantar_foot_1_" fill-rule="evenodd" clip-rule="evenodd" fill="#2895B2" d="M191,175.8
	c-10.8,4-20.6,10.6-29.7,17.5c-9.4,7-18.2,15.2-24,25.5c-6.1,10.7-8.9,22.7-11.4,34.7c-2.7,12.6-4.7,26.8-11.5,38
	c-6.4,10.5-16.2,18-26.1,24.8c-11,7.5-21.1,15.4-30.7,24.6c-8.6,8.2-17.3,16.6-27.4,22.9c-2.8,31-9.3,130.6,17.2,172.6
	c7.3,11.6,13,26.6,17.5,42.8c6.6-14.5,15.2-28,24.8-40.7c14.5-19,32-35,48.9-51.8c19.4-19.3,40.1-39.1,64.8-51.5
	c2.4-1.2,4.9-2.3,7.4-3.4C210.5,346.1,191.9,261.6,191,175.8z"/>
<path id="Right_distal_medial_plantar_foot_1_" fill-rule="evenodd" clip-rule="evenodd" fill="#2895B2" d="M421.9,275.8
	c-2.2-5-4.1-10.3-5.7-15.8c-24.5-14.6-48.1-30.8-73-44.8c-16-9-32.6-17.1-50-23c-17.9-6-36.5-9.8-55.1-12.7
	c-8.2-1.3-16.5-2.4-24.8-3.3c-6.4-0.7-12.7-1.3-19,0c0.5,84.9,18.9,168.6,19.6,253.6c18.5-6.2,38.5-8.1,57.8-7.7
	c46.4,1.1,91.3,17.8,125.6,49.1C416.3,396.6,434.9,305.4,421.9,275.8z"/>
<path id="Right_medial_plantar_arch_1_" fill-rule="evenodd" clip-rule="evenodd" fill="#2895B2" d="M310.4,429.9
	c-30.3,85.5-29,177.3-29,266.8c20.8,4.3,41.5,11.2,60.1,21.3c9-68.7,25.8-143.9,25.8-143.9s13.8-43.9,28.1-98.9
	C371.7,452.8,342.3,437.2,310.4,429.9z"/>
<path id="Right_lateral_plantar_arch_1_" fill-rule="evenodd" clip-rule="evenodd" fill="#2895B2" d="M137.6,658.4
	c-5.1-17.6-11.6-35.4-14.4-53.6c-4.9-31.8-2.1-63.9-1.6-96c-4.7,4.6-9.3,9.2-13.7,14.1c-16.8,18.9-31.6,40.1-40.5,63.8
	c11.8,50.8,12.8,107.3,12.8,107.3c2.5,20.8,5.6,41.9,9.4,62.6c6.2-5.6,13-10.5,19.8-15c13.9-9.4,28.2-19,43.1-27.2
	C148.1,695.6,143,677,137.6,658.4z"/>
<path id="Right_plantar_arch_1_" fill-rule="evenodd" clip-rule="evenodd" fill="#2895B2" d="M308.7,426.7
	c-23.4-4.3-47.6-4.7-71.1-0.7c-13.4,2.3-25.9,6.1-37.8,12.8c-12.6,7.1-24.1,15.7-35,25.2c-10.7,9.3-20.9,19.2-30.9,29.2
	c-2.8,2.8-5.6,5.5-8.5,8.2c0,0,0,0,0,0c-0.1,35.4-4.7,71.8,1.9,106.9c3.5,18.5,10,36.6,15.1,54.7c4.8,17,9.5,34,13.5,51.2
	c5.5-2.8,11.2-5.5,16.9-7.8c14.3-5.8,29.3-10.4,44.7-12.5c11.8-1.7,23.8-1.4,35.7-0.5c8.5,0.7,17.3,1.8,26,3.4
	C279.2,606.2,278.2,513.3,308.7,426.7z"/>
<path id="Right_medial_heel_1_" fill-rule="evenodd" clip-rule="evenodd" fill="#2895B2" d="M341.6,811c-4.5-17.6-2.6-51,1.8-87.3
	c-20.6-11.5-43.4-19.1-66.6-23.4c-21.2-4-42.9-5.6-64.1-1.9c-0.9,44.8,14.4,88.1,22.6,131.7c4.5,23.8,6.4,48.3,9.3,72.3
	c1.8,14.8,3.7,29.5,5.7,44.2C322.7,927.5,354.3,860.8,341.6,811z"/>
<path id="Right_lateral_heel_1_" fill-rule="evenodd" clip-rule="evenodd" fill="#2895B2" d="M241.4,902.6c-3.1-24.6-5-49.7-9.9-74
	c-8.7-43.2-21.9-86.4-21.3-130.9c-0.9,0.2-3.9,0.4-4.8,0.7c-15.2,3.9-30,8.5-43.9,15.6c-11.2,5.8-21.7,11.8-32.4,18.4
	c-13.2,8.1-27.8,17.6-39.1,28.7c21.7,109.5,64.9,207.4,157.4,185.8C245.2,932.2,243.2,917.4,241.4,902.6z"/>
</svg>
