<?xml version="1.0" encoding="utf-8"?>
<!-- Generator: Adobe Illustrator 15.0.0, SVG Export Plug-In  -->
<!DOCTYPE svg PUBLIC "-//W3C//DTD SVG 1.1//EN" "http://www.w3.org/Graphics/SVG/1.1/DTD/svg11.dtd" [
	<!ENTITY ns_flows "http://ns.adobe.com/Flows/1.0/">
]>
<svg version="1.1"
	 xmlns="http://www.w3.org/2000/svg" xmlns:xlink="http://www.w3.org/1999/xlink" xmlns:a="http://ns.adobe.com/AdobeSVGViewerExtensions/3.0/"
	 x="0px" y="0px" width="180px" height="626px" viewBox="-0.5 -0.3 180 626"
	 overflow="visible" enable-background="new -0.5 -0.3 180 626" xml:space="preserve">
<defs>
</defs>
<path id="Right_posterior_deltoid_1_" fill="#2895B2" d="M18.1,95c25.3,0,50.6,0,75.9,0c5.9,0,11.8,0,17.8,0c6.8,0,6.3,0.6,7-7.4
	c1.3-15.3-2.3-28.9-8-42.9c-6-14.7-9.9-29.5-14.3-44.6C84.8,8.7,70.4,14.9,57.8,22c-13.3,7.5-27.5,14.2-40.3,22.4
	C13,47.3,15.9,59.4,16,63.8C16.4,74.2,17.1,84.6,18.1,95C18.1,95,17.3,87,18.1,95z"/>
<path id="Right_posteriomedial_proximal_triceps_1_" fill="#2895B2" d="M63.9,97c0-0.1-41.2-0.1-45.6-0.1c0.7,7.3,2.3,15.1,1.3,22.5
	c-0.9,7.1-3.8,13.7-6.5,20.3c-2.8,6.7-4.9,13.7-7.9,20.3c-1.5,3.4-4,7-4.8,10.6c-0.8,3.5-0.2,7.3,0.1,10.8c5.3-0.5,63.3-9,63.3-8.4
	c0-6.8,0-13.7,0-20.5C63.9,134.1,63.9,115.5,63.9,97C63.9,97,63.9,97,63.9,97z"/>
<path id="Right_posteriolateral_proximal_triceps_1_" fill="#2895B2" d="M108.2,134c-1.9-6.2,1.1-11.3,3.3-17
	c2.5-6.5,4.6-13.2,5.9-20.1c-17.2,0-34.3,0-51.5,0c1.7,25.1,0,50.9,0,76c14.5-0.9,29-1.8,43.4-4.2c5-0.8,5.5-0.4,5.1-5.5
	c-0.2-3.1-0.6-6.1-1-9.2C112.3,147.3,110.3,140.6,108.2,134C106.1,127.4,110.3,140.8,108.2,134z"/>
<path id="Right_posteriomedial_distal_triceps_1_" fill="#2895B2" d="M60.5,264.7c0.2-6.6-1.1-13.2-1.3-19.8
	c-0.3-7.7,0.6-15.4,0.7-23.1c0.2-15.6,3.6-31,3.3-46.6c-16.6,1-32.7,4-49.1,6.5c-3.6,0.6-7.1,1.1-10.7,1.5c-2.3-0.7-3.2-0.1-2.6,1.7
	c0,2.4,0,4.8-0.1,7.2c-0.2,8.2-0.5,16.5,0.2,24.7c1.3,16.4,7.4,32.2,11.8,47.9c0.5,1.7,0.9,3.4,1.4,5.1c2.8-0.1,5.5-0.3,8.3-0.4
	c4.6-0.3,9.2-0.7,13.8-1.1C39.4,267.9,60.5,266.6,60.5,264.7C60.7,257.2,60.5,265,60.5,264.7z"/>
<path id="Right_posteriolateral_distal_triceps_1_" fill="#2895B2" d="M110.3,235.4c1.3-21.8,5.2-43.6,4.5-65.5
	c-11.6,2.2-23.4,3.4-35.3,4.2c-2.7,0.2-5.5,0.4-8.2,0.6c-4.3,0.3-6-1-6.1,3.7c-0.2,6.5-1.1,12.8-1.9,19.2c-1.4,11.5-1.3,23-1.8,34.5
	c-0.3,5.9-0.3,11.8,0.2,17.7c0.3,3.3,2.7,12.6,0.7,15.4c16.1-1.9,32.2-3.8,48.4-4.2C109.9,252.5,109.8,243.9,110.3,235.4
	C111.6,213.1,109.7,244.6,110.3,235.4z"/>
<path id="Right_posteriomedial_elbow_1_" fill="#2895B2" d="M17.6,380.2c16.7-6.3,33.7-10.1,50.7-15.4c1.6-0.5,3.2-1,4.8-1.6
	c3.5-1.1,2.3-1.9,2.2-5.1c-0.1-3.2-0.7-6.3-2.4-9.2c-1.2-2.1-4.3-6.1-4.1-8.6c-3.7,0.3-7.4-0.2-10.8-1.5
	c-12.6-4.9-16.5-21.2-10-32.6c1.7-3,4.6-5.2,7.7-6.7c1.3-0.6,2.7-1.2,4.1-1.6c3.3-1,4.5,0.4,4-3.6c-0.6-4.4-1.1-8.8-1.6-13.1
	c-0.4-3.3-2.8-10.6-1.6-13.7c-15.3,1.8-30.7,3.7-46.1,4.3C23.5,307.4,14.9,344,17.6,380.2C25.4,377.2,15.7,354.7,17.6,380.2z"/>
<path id="Right_elbow_1_" fill="#2895B2" d="M69.1,297.7c-0.6,1.3-5,1.1-6.2,1.4c-3.1,0.6-6.1,1.6-8.7,3.3c-5.1,3.5-6.9,10.4-7,16.2
	c-0.2,12,9.4,20.6,21.3,19.7c10.8-0.8,22.7-9.2,22.5-20.9C90.7,305.7,79.9,298.4,69.1,297.7C68.9,298.1,80.8,298.4,69.1,297.7z"/>
<path id="Right_posteriolateral_elbow_1_" fill="#2895B2" d="M66.1,296.1c2.2-3,13.8,2.3,16.1,3.6c4.9,2.9,8.9,7.6,10.2,13.2
	c3.2,13.9-8.9,24.8-21.6,27c1.4,3.1,3,5.9,4.6,9c2.1,4.1,1.7,8.3,2.2,12.8c10.2-3.4,20.6-6,30.8-9.3c4.6-1.5,9.2-2.8,13.9-4.2
	c5.3-1.6,10.3-4.3,15.7-5.2c-3.5-11.1-7.4-22.3-12-33.1c-3.9-9.3-9.9-17.8-12.2-27.7c-1.1-4.7-1.7-9.7-2.3-14.5
	c-0.4-3.5,0.8-4.7-3.3-4.6c-3.6,0.1-7.2,0.3-10.8,0.6c-11.7,0.8-23.3,2.2-35,3.6c1.4,3.9,1.2,9.1,1.7,13.2
	C64.8,285.7,65.4,290.9,66.1,296.1C66.3,295.9,64.8,286.5,66.1,296.1z"/>
<path id="Right_posteriomedial_proximal_forearm_1_" fill="#2895B2" d="M80.5,382c-1.5-5.9-3.7-11.6-4.7-17.6
	c-12.7,4.1-25.6,7.1-38.4,10.6c-6.7,1.8-13.1,4.7-19.6,7.2c0.5,6.2,1.4,12.3,2.8,18.3c2.9,12.5,9.2,23.9,12.2,36.3
	c3,12.2,5.6,23,10.7,34.5c9.8-4.5,20-8.7,30.4-11.5c5.8-1.6,11.7-2.8,17.6-4.2c2.5-0.6,5-1.2,7.5-2c4.6-1.4,4.4-1.4,3.3-6.1
	C97.3,425.1,86.3,404.4,80.5,382C79,376.3,84.9,399.1,80.5,382z"/>
<path id="Right_posteriolateral_proximal_forearm_1_" fill="#2895B2" d="M148.4,391.8c-2.1-8.7-3.2-17.6-4.8-26.4
	c-0.8-4.4-1.7-8.7-2.9-13c-0.5-1.7-0.9-3.3-1.4-5c-1-3.5-1.9-2.4-4.9-1.4c-15.3,5.1-30.9,9.2-46.2,14.3c-1.7,0.6-3.4,1.2-5.1,1.8
	c-3.2,1.1-5.5,0.4-4.6,4.2c0.9,4.1,2.1,8.1,3.3,12.1c2.3,8.1,4.3,16.3,7.2,24.2c5.9,16.4,13,32,16.4,49.2c18-6,35.6-8.2,54.4-10.4
	C156.2,424.7,152.4,408.2,148.4,391.8C145.4,379.6,152.5,408.3,148.4,391.8z"/>
<path id="Right_posteriomedial_distal_forearm_1_" fill="#2895B2" d="M109.2,481.2c-1.7-9.4-2.9-18.8-4.6-28.1
	c-14,4.6-28.5,6.9-42.3,12.1c-3.3,1.3-6.5,2.6-9.8,4c-3.2,1.4-7.9,1.7-6.3,5.5c2.8,6.7,5.6,13.5,9.3,19.7
	c7.8,13.3,18.2,25.3,27.2,37.8c3,4.1,3,4.9,7.9,3.4c3.8-1.1,7.4-2.5,11.2-3.6c6.9-2,14.1-3.2,21-5.3c-3.5-6.5-4.5-13.8-6.5-20.8
	C114,497.7,110.7,489.7,109.2,481.2C107.6,471.9,110.7,489.7,109.2,481.2z"/>
<path id="Right_posteriolateral_distal_forearm_1_" fill="#2895B2" d="M165.3,474.1c-1.6-10.7-3.4-21.3-5.4-31.9
	c-10.3,1.3-49.9,9-52.1,9.8c-3.5,1.3-1.9,2.7-1.3,6c1.7,10.3,2.9,20.7,5.9,30.7c2.8,9.4,5.2,18.8,8,28.2c0.7,2.2,1.5,4.4,2.4,6.5
	c1.5,3.2,2.5,1.7,5.3,0.8c4.8-1.5,33.7-9.9,36.2-10.4c3.5-0.7,5,0.2,4.6-3.9C167.7,498,167.1,486,165.3,474.1
	C163.7,463.4,167.2,486.9,165.3,474.1z"/>
<path id="Right_posteriomedial_wrist_1_" fill="#2895B2" d="M122.2,526.9c-11.9,4.5-23.9,6-35.9,9.9c6.8,14.3,20.8,32.4,17,48.4
	c-1.7,7.2-20,40.3-20,40.3h48.8c0,0-3.3-31.4-4.6-42.7C126.2,570.2,122.4,533.6,122.2,526.9z"/>
<path id="Right_posteriolateral_wrist_1_" fill="#2895B2" d="M177.1,567c-4.4-16.7-6.5-34.5-7.8-52.3c-7.8,2.9-46.1,12.6-46.1,12.6
	s5.8,67.3,7.5,79.6c0.8,6.1,3.5,18.5,3.5,18.5h41c0,0,2.1-18,2.8-23.8C179.4,590.2,180.1,578.1,177.1,567
	C172.7,550.1,181.9,584.9,177.1,567z"/>
</svg>
